<svg xmlns="http://www.w3.org/2000/svg" xmlns:xlink="http://www.w3.org/1999/xlink" width="588" zoomAndPan="magnify" viewBox="0 0 440.88 127.500001" height="170" preserveAspectRatio="xMidYMid meet" version="1.0"><defs><g/><clipPath id="ee219e8cb1"><path d="M 13.421875 24.28125 L 60.328125 24.28125 L 60.328125 71.1875 L 13.421875 71.1875 Z M 13.421875 24.28125 " clip-rule="nonzero"/></clipPath><clipPath id="050f84ac0a"><path d="M 36.875 24.28125 C 23.921875 24.28125 13.421875 34.78125 13.421875 47.734375 C 13.421875 60.6875 23.921875 71.1875 36.875 71.1875 C 49.828125 71.1875 60.328125 60.6875 60.328125 47.734375 C 60.328125 34.78125 49.828125 24.28125 36.875 24.28125 Z M 36.875 24.28125 " clip-rule="nonzero"/></clipPath><clipPath id="dc5cb0c494"><path d="M 62.957031 24.28125 L 109.863281 24.28125 L 109.863281 71.1875 L 62.957031 71.1875 Z M 62.957031 24.28125 " clip-rule="nonzero"/></clipPath><clipPath id="d42e101b5c"><path d="M 86.410156 24.28125 C 73.457031 24.28125 62.957031 34.78125 62.957031 47.734375 C 62.957031 60.6875 73.457031 71.1875 86.410156 71.1875 C 99.363281 71.1875 109.863281 60.6875 109.863281 47.734375 C 109.863281 34.78125 99.363281 24.28125 86.410156 24.28125 Z M 86.410156 24.28125 " clip-rule="nonzero"/></clipPath><clipPath id="8e14e61988"><path d="M 3 16.742188 L 118 16.742188 L 118 94.4375 L 3 94.4375 Z M 3 16.742188 " clip-rule="nonzero"/></clipPath></defs><g clip-path="url(#ee219e8cb1)"><g clip-path="url(#050f84ac0a)"><path fill="#ffffff" d="M 13.421875 24.28125 L 60.328125 24.28125 L 60.328125 71.1875 L 13.421875 71.1875 Z M 13.421875 24.28125 " fill-opacity="1" fill-rule="nonzero"/></g></g><g clip-path="url(#dc5cb0c494)"><g clip-path="url(#d42e101b5c)"><path fill="#ffffff" d="M 62.957031 24.28125 L 109.863281 24.28125 L 109.863281 71.1875 L 62.957031 71.1875 Z M 62.957031 24.28125 " fill-opacity="1" fill-rule="nonzero"/></g></g><g clip-path="url(#8e14e61988)"><path fill="#76bc81" d="M 114.074219 52.667969 C 109.085938 33.648438 103.339844 21.140625 90.101562 17.542969 C 88.082031 16.996094 86.179688 16.730469 84.285156 16.730469 C 80.292969 16.730469 77.078125 17.933594 73.964844 19.097656 C 71.097656 20.171875 67.898438 21.34375 63.472656 21.742188 L 60.15625 21.839844 C 60.15625 21.859375 50.152344 20.390625 46.667969 19.085938 C 43.570312 17.925781 40.359375 16.722656 36.382812 16.722656 C 34.484375 16.722656 32.578125 16.988281 30.5625 17.539062 C 17.3125 21.136719 11.566406 33.648438 6.59375 52.667969 C 0.824219 74.695312 2.417969 89.464844 10.96875 93.1875 C 12.359375 93.796875 13.824219 94.105469 15.320312 94.105469 C 22.921875 94.105469 29.914062 86.113281 35.019531 80.273438 L 36.410156 78.664062 C 40.574219 73.792969 49.292969 71 60.332031 71 C 72.335938 71 79.714844 73.363281 84.25 78.667969 L 85.640625 80.285156 C 90.742188 86.117188 97.726562 94.101562 105.335938 94.101562 C 106.839844 94.101562 108.300781 93.792969 109.683594 93.1875 C 118.234375 89.464844 119.832031 74.699219 114.074219 52.667969 Z M 42.164062 54.15625 L 36.457031 54.15625 L 36.457031 59.683594 C 36.457031 61.710938 34.675781 63.421875 32.5625 63.421875 C 30.449219 63.421875 28.664062 61.710938 28.664062 59.683594 L 28.664062 54.15625 L 23.304688 54.15625 C 21.28125 54.15625 19.566406 52.371094 19.566406 50.257812 C 19.566406 48.144531 21.277344 46.359375 23.304688 46.359375 L 28.664062 46.359375 L 28.664062 40.824219 C 28.664062 38.800781 30.449219 37.089844 32.5625 37.089844 C 34.675781 37.089844 36.457031 38.800781 36.457031 40.824219 L 36.457031 46.359375 L 42.164062 46.359375 C 44.1875 46.359375 45.898438 48.144531 45.898438 50.257812 C 45.902344 52.371094 44.1875 54.15625 42.164062 54.15625 Z M 82.695312 60.9375 C 79.535156 60.9375 76.964844 58.371094 76.964844 55.210938 C 76.964844 52.054688 79.539062 49.484375 82.695312 49.484375 C 85.851562 49.484375 88.417969 52.054688 88.417969 55.210938 C 88.417969 58.371094 85.847656 60.9375 82.695312 60.9375 Z M 93.378906 50.253906 C 90.21875 50.253906 87.652344 47.683594 87.652344 44.527344 C 87.652344 41.371094 90.222656 38.800781 93.378906 38.800781 C 96.535156 38.800781 99.105469 41.371094 99.109375 44.527344 C 99.109375 47.6875 96.535156 50.253906 93.378906 50.253906 Z M 93.378906 50.253906 " fill-opacity="1" fill-rule="nonzero"/></g><g fill="#ede9de" fill-opacity="1"><g transform="translate(127.350495, 81.181413)"><g><path d="M 3.953125 -54.265625 L 23.75 -54.265625 C 29.269531 -54.265625 33.738281 -52.835938 37.15625 -49.984375 C 40.582031 -47.140625 42.296875 -43 42.296875 -37.5625 C 42.296875 -32.125 40.5625 -27.859375 37.09375 -24.765625 C 33.632812 -21.671875 29.1875 -20.125 23.75 -20.125 L 16.3125 -20.125 L 16.3125 0 L 3.953125 0 Z M 16.3125 -30 L 19.796875 -30 C 22.554688 -30 24.820312 -30.554688 26.59375 -31.671875 C 28.375 -32.785156 29.265625 -34.617188 29.265625 -37.171875 C 29.265625 -39.753906 28.375 -41.601562 26.59375 -42.71875 C 24.820312 -43.84375 22.554688 -44.40625 19.796875 -44.40625 L 16.3125 -44.40625 Z M 16.3125 -30 "/></g></g></g><g fill="#ede9de" fill-opacity="1"><g transform="translate(171.159696, 81.181413)"><g><path d="M 3.953125 0 L 3.953125 -56.578125 L 15.59375 -56.578125 L 15.59375 0 Z M 3.953125 0 "/></g></g></g><g fill="#ede9de" fill-opacity="1"><g transform="translate(190.69622, 81.181413)"><g><path d="M 6.25 -4.171875 C 3.09375 -7.617188 1.515625 -11.84375 1.515625 -16.84375 C 1.515625 -21.84375 3.09375 -26.070312 6.25 -29.53125 C 9.40625 -33 13.414062 -34.734375 18.28125 -34.734375 C 22.757812 -34.734375 26.445312 -33.328125 29.34375 -30.515625 L 29.34375 -33.75 L 40.984375 -33.75 L 40.984375 0 L 29.46875 0 L 29.46875 -3.8125 L 29.34375 -3.8125 C 26.445312 -0.613281 22.757812 0.984375 18.28125 0.984375 C 13.414062 0.984375 9.40625 -0.734375 6.25 -4.171875 Z M 16.140625 -22.5625 C 14.628906 -21.070312 13.875 -19.164062 13.875 -16.84375 C 13.875 -14.519531 14.597656 -12.625 16.046875 -11.15625 C 17.492188 -9.6875 19.40625 -8.953125 21.78125 -8.953125 C 24.050781 -8.953125 25.921875 -9.695312 27.390625 -11.1875 C 28.867188 -12.675781 29.609375 -14.5625 29.609375 -16.84375 C 29.609375 -19.164062 28.847656 -21.070312 27.328125 -22.5625 C 25.816406 -24.050781 23.96875 -24.796875 21.78125 -24.796875 C 19.539062 -24.796875 17.660156 -24.050781 16.140625 -22.5625 Z M 16.140625 -22.5625 "/></g></g></g><g fill="#ede9de" fill-opacity="1"><g transform="translate(235.623667, 81.181413)"><g><path d="M 29.53125 -33.75 L 42.953125 -33.75 L 16.453125 17.109375 L 3.03125 17.109375 L 14.671875 -5.265625 L -1.3125 -33.75 L 12.109375 -33.75 L 21.515625 -16.453125 Z M 29.53125 -33.75 "/></g></g></g><g fill="#ede9de" fill-opacity="1"><g transform="translate(277.262125, 81.181413)"><g><path d="M 16.3125 -21.78125 L 16.3125 0 L 3.953125 0 L 3.953125 -54.265625 L 16.3125 -54.265625 L 16.3125 -32.625 L 33.8125 -32.625 L 33.8125 -54.265625 L 46.171875 -54.265625 L 46.171875 0 L 33.8125 0 L 33.8125 -21.78125 Z M 16.3125 -21.78125 "/></g></g></g><g fill="#ede9de" fill-opacity="1"><g transform="translate(327.386165, 81.181413)"><g><path d="M 14.9375 -33.75 L 14.9375 -17.6875 C 14.9375 -14.363281 15.4375 -12 16.4375 -10.59375 C 17.445312 -9.1875 19.15625 -8.484375 21.5625 -8.484375 C 23.976562 -8.484375 25.691406 -9.1875 26.703125 -10.59375 C 27.710938 -12 28.21875 -14.363281 28.21875 -17.6875 L 28.21875 -33.75 L 39.859375 -33.75 L 39.859375 -14.859375 C 39.859375 -9.253906 38.398438 -5.210938 35.484375 -2.734375 C 32.566406 -0.253906 27.925781 0.984375 21.5625 0.984375 C 15.207031 0.984375 10.570312 -0.253906 7.65625 -2.734375 C 4.75 -5.210938 3.296875 -9.253906 3.296875 -14.859375 L 3.296875 -33.75 Z M 14.9375 -33.75 "/></g></g></g><g fill="#ede9de" fill-opacity="1"><g transform="translate(370.537559, 81.181413)"><g><path d="M 38.671875 -29.53125 C 41.835938 -26.070312 43.421875 -21.84375 43.421875 -16.84375 C 43.421875 -11.84375 41.835938 -7.617188 38.671875 -4.171875 C 35.515625 -0.734375 31.503906 0.984375 26.640625 0.984375 C 22.171875 0.984375 18.488281 -0.613281 15.59375 -3.8125 L 15.453125 -3.8125 L 15.453125 0 L 3.953125 0 L 3.953125 -56.578125 L 15.59375 -56.578125 L 15.59375 -30.515625 C 18.488281 -33.328125 22.171875 -34.734375 26.640625 -34.734375 C 31.503906 -34.734375 35.515625 -33 38.671875 -29.53125 Z M 28.875 -11.15625 C 30.320312 -12.625 31.046875 -14.519531 31.046875 -16.84375 C 31.046875 -19.164062 30.289062 -21.070312 28.78125 -22.5625 C 27.269531 -24.050781 25.394531 -24.796875 23.15625 -24.796875 C 20.957031 -24.796875 19.101562 -24.050781 17.59375 -22.5625 C 16.082031 -21.070312 15.328125 -19.164062 15.328125 -16.84375 C 15.328125 -14.5625 16.0625 -12.675781 17.53125 -11.1875 C 19 -9.695312 20.875 -8.953125 23.15625 -8.953125 C 25.519531 -8.953125 27.425781 -9.6875 28.875 -11.15625 Z M 28.875 -11.15625 "/></g></g></g></svg>