<svg xmlns="http://www.w3.org/2000/svg" xmlns:xlink="http://www.w3.org/1999/xlink" width="194" zoomAndPan="magnify" viewBox="0 0 145.5 145.499993" height="194" preserveAspectRatio="xMidYMid meet" version="1.0"><defs><clipPath id="9ae740cb8b"><path d="M 0 0 L 144.382812 0 L 144.382812 144.382812 L 0 144.382812 Z M 0 0 " clip-rule="nonzero"/></clipPath><clipPath id="9878833cb7"><path d="M 72.191406 0 C 32.320312 0 0 32.320312 0 72.191406 C 0 112.0625 32.320312 144.382812 72.191406 144.382812 C 112.0625 144.382812 144.382812 112.0625 144.382812 72.191406 C 144.382812 32.320312 112.0625 0 72.191406 0 Z M 72.191406 0 " clip-rule="nonzero"/></clipPath><clipPath id="e6392042b6"><path d="M 72.191406 40.96875 L 119.121094 40.96875 L 119.121094 87.898438 L 72.191406 87.898438 Z M 72.191406 40.96875 " clip-rule="nonzero"/></clipPath><clipPath id="4e5c1ff175"><path d="M 95.65625 40.96875 C 82.695312 40.96875 72.191406 51.472656 72.191406 64.433594 C 72.191406 77.394531 82.695312 87.898438 95.65625 87.898438 C 108.617188 87.898438 119.121094 77.394531 119.121094 64.433594 C 119.121094 51.472656 108.617188 40.96875 95.65625 40.96875 Z M 95.65625 40.96875 " clip-rule="nonzero"/></clipPath><clipPath id="60e52c4126"><path d="M 25.261719 40.96875 L 72.191406 40.96875 L 72.191406 87.898438 L 25.261719 87.898438 Z M 25.261719 40.96875 " clip-rule="nonzero"/></clipPath><clipPath id="cddb3bfdac"><path d="M 48.726562 40.96875 C 35.765625 40.96875 25.261719 51.472656 25.261719 64.433594 C 25.261719 77.394531 35.765625 87.898438 48.726562 87.898438 C 61.6875 87.898438 72.191406 77.394531 72.191406 64.433594 C 72.191406 51.472656 61.6875 40.96875 48.726562 40.96875 Z M 48.726562 40.96875 " clip-rule="nonzero"/></clipPath><clipPath id="f2d5cd4b40"><path d="M 15 33.425781 L 130 33.425781 L 130 111 L 15 111 Z M 15 33.425781 " clip-rule="nonzero"/></clipPath></defs><g clip-path="url(#9ae740cb8b)"><g clip-path="url(#9878833cb7)"><path fill="#ffffff" d="M 0 0 L 144.382812 0 L 144.382812 144.382812 L 0 144.382812 Z M 0 0 " fill-opacity="1" fill-rule="nonzero"/></g></g><g clip-path="url(#e6392042b6)"><g clip-path="url(#4e5c1ff175)"><path fill="#ffffff" d="M 72.191406 40.96875 L 119.121094 40.96875 L 119.121094 87.898438 L 72.191406 87.898438 Z M 72.191406 40.96875 " fill-opacity="1" fill-rule="nonzero"/></g></g><g clip-path="url(#60e52c4126)"><g clip-path="url(#cddb3bfdac)"><path fill="#ffffff" d="M 25.261719 40.96875 L 72.191406 40.96875 L 72.191406 87.898438 L 25.261719 87.898438 Z M 25.261719 40.96875 " fill-opacity="1" fill-rule="nonzero"/></g></g><g clip-path="url(#f2d5cd4b40)"><path fill="#76bc81" d="M 125.960938 69.371094 C 120.972656 50.34375 115.222656 37.824219 101.980469 34.230469 C 99.957031 33.683594 98.054688 33.414062 96.160156 33.414062 C 92.164062 33.414062 88.949219 34.617188 85.832031 35.785156 C 82.964844 36.855469 79.761719 38.03125 75.335938 38.429688 L 72.019531 38.527344 C 72.019531 38.546875 62.007812 37.078125 58.523438 35.773438 C 55.421875 34.609375 52.214844 33.40625 48.234375 33.40625 C 46.335938 33.40625 44.429688 33.675781 42.410156 34.226562 C 29.152344 37.824219 23.40625 50.339844 18.429688 69.367188 C 12.65625 91.410156 14.253906 106.183594 22.804688 109.910156 C 24.199219 110.519531 25.664062 110.828125 27.160156 110.828125 C 34.765625 110.828125 41.761719 102.832031 46.871094 96.988281 L 48.261719 95.378906 C 52.425781 90.503906 61.152344 87.710938 72.191406 87.710938 C 84.203125 87.710938 91.585938 90.078125 96.121094 95.382812 L 97.515625 97 C 102.617188 102.835938 109.605469 110.824219 117.21875 110.824219 C 118.722656 110.824219 120.183594 110.515625 121.570312 109.910156 C 130.125 106.183594 131.722656 91.410156 125.960938 69.371094 Z M 54.019531 70.859375 L 48.308594 70.859375 L 48.308594 76.390625 C 48.308594 78.417969 46.523438 80.128906 44.414062 80.128906 C 42.296875 80.128906 40.511719 78.417969 40.511719 76.390625 L 40.511719 70.859375 L 35.148438 70.859375 C 33.125 70.859375 31.410156 69.074219 31.410156 66.960938 C 31.410156 64.84375 33.121094 63.058594 35.148438 63.058594 L 40.511719 63.058594 L 40.511719 57.523438 C 40.511719 55.496094 42.296875 53.785156 44.414062 53.785156 C 46.523438 53.785156 48.308594 55.496094 48.308594 57.523438 L 48.308594 63.058594 L 54.019531 63.058594 C 56.039062 63.058594 57.753906 64.84375 57.753906 66.960938 C 57.757812 69.074219 56.042969 70.859375 54.019531 70.859375 Z M 94.566406 77.644531 C 91.40625 77.644531 88.835938 75.078125 88.835938 71.914062 C 88.835938 68.753906 91.410156 66.1875 94.566406 66.1875 C 97.726562 66.1875 100.292969 68.757812 100.292969 71.914062 C 100.292969 75.078125 97.722656 77.644531 94.566406 77.644531 Z M 105.257812 66.957031 C 102.097656 66.957031 99.53125 64.382812 99.53125 61.222656 C 99.53125 58.066406 102.101562 55.496094 105.257812 55.496094 C 108.414062 55.496094 110.988281 58.066406 110.988281 61.222656 C 110.988281 64.386719 108.414062 66.957031 105.257812 66.957031 Z M 105.257812 66.957031 " fill-opacity="1" fill-rule="nonzero"/></g></svg>